<?xml version="1.0" standalone="no"?>
<!DOCTYPE svg PUBLIC "-//W3C//DTD SVG 20010904//EN"
 "http://www.w3.org/TR/2001/REC-SVG-20010904/DTD/svg10.dtd">
<svg version="1.0" xmlns="http://www.w3.org/2000/svg"
 width="928.000000pt" height="876.000000pt" viewBox="0 0 928.000000 876.000000"
 preserveAspectRatio="xMidYMid meet">

<g transform="translate(0.000000,876.000000) scale(0.100000,-0.100000)"
fill="#000000" stroke="none">
<path d="M3515 8696 c-361 -91 -669 -198 -945 -327 l-108 -51 5 -106 c8 -216
34 -579 53 -740 10 -91 17 -169 15 -173 -3 -3 -55 -37 -117 -74 -222 -135
-491 -331 -677 -495 l-86 -76 -135 86 c-164 105 -347 212 -540 315 l-144 78
-73 -78 c-169 -178 -449 -531 -592 -744 -95 -141 -161 -250 -161 -265 0 -20
300 -468 438 -653 l121 -163 4 -1657 c3 -1645 3 -1659 24 -1754 121 -549 479
-954 1128 -1277 546 -272 1251 -441 2165 -519 299 -26 1194 -26 1500 0 1163
98 2026 358 2612 787 128 93 323 286 411 405 158 215 257 469 286 737 7 64 11
639 11 1687 l0 1590 121 163 c149 199 439 634 439 657 -1 21 -142 240 -262
405 -147 204 -353 455 -516 630 l-46 49 -110 -58 c-173 -91 -418 -233 -571
-331 l-140 -90 -86 76 c-186 164 -455 360 -677 495 -62 37 -114 71 -117 74 -2
4 5 82 15 173 19 161 45 524 53 740 l5 106 -108 51 c-202 94 -430 180 -680
254 -141 42 -442 119 -446 114 -34 -40 -328 -606 -418 -806 l-37 -83 -62 7
c-173 20 -258 24 -427 24 -169 0 -254 -4 -427 -24 l-62 -7 -37 83 c-111 245
-407 810 -423 808 -3 0 -82 -20 -176 -43z m-742 -3935 c187 -66 323 -198 389
-377 33 -91 37 -269 8 -366 -57 -192 -214 -351 -405 -411 -99 -31 -263 -30
-355 2 -100 35 -168 78 -245 155 -119 119 -175 255 -175 421 0 172 52 297 175
420 90 91 164 135 277 165 94 26 244 22 331 -9z"/>
</g>
</svg>
